#!OML:ASF H:\Terrain\Patient Classification 1\Takeo\Monday\TakeoMonday.ASF
:FULLY-SPECIFIED
:DEGREES
47
root 17.6791 17.8967 0.754321 1.4492 -43.5747 -4.83997
lowerback 6.35256 0.852126 -3.06495
upperback 2.59536 0.939411 0.848204
thorax -0.948523 0.439495 2.52786
lowerneck -10.8227 1.8689 -7.21319
upperneck -6.06087 3.30679 7.79883
head -0.330212 1.81191 3.95271
rclavicle 3.8266e-014 -6.36111e-015
rhumerus -4.29315 25.9027 -72.2166
rradius 76.9714
rwrist -14.796
rhand -36.1552 38.55
rfingers 7.12502
rthumb -9.25954 8.7733
lclavicle 3.8266e-014 -6.36111e-015
lhumerus -15.4108 -17.2837 95.7836
lradius 83.157
lwrist 26.2742
lhand -25.8086 19.932
lfingers 7.12502
lthumb 0.730649 49.9105
rfemur -4.88137 -1.315 15.3892
rtibia 31.1538
rfoot -9.21076 -16.594
rtoes -14.888
lfemur -8.64592 6.68593 -19.2658
ltibia 25.8893
lfoot -15.0677 17.0288
ltoes 5.69455
48
root 17.7044 17.9032 0.72655 1.64704 -44.3872 -4.94977
lowerback 6.28061 0.942734 -2.98159
upperback 2.62896 1.06548 0.763293
thorax -0.879508 0.501408 2.38538
lowerneck -11.0361 1.97208 -6.91979
upperneck -5.98279 3.41689 7.72783
head -0.270759 1.86356 3.8774
rclavicle -4.84538e-014 1.27222e-014
rhumerus -3.84846 25.2726 -71.169
rradius 77.0375
rwrist -14.9711
rhand -36.1875 38.1641
rfingers 7.12502
rthumb -9.29072 8.38882
lclavicle -4.84538e-014 1.27222e-014
lhumerus -15.3933 -17.0154 95.1749
lradius 83.3428
lwrist 26.3667
lhand -25.8867 20.2081
lfingers 7.12502
lthumb 0.655161 50.1868
rfemur -4.55008 -1.3874 15.2232
rtibia 30.9652
rfoot -9.14769 -16.7288
rtoes -14.1364
lfemur -8.79213 7.24041 -19.2057
ltibia 25.8508
lfoot -15.1847 17.266
ltoes 6.28978
49
root 17.7279 17.9148 0.732664 1.92793 -45.2781 -4.88085
lowerback 5.60743 0.988563 -2.81445
upperback 2.64497 1.1564 0.695936
thorax -0.490495 0.542682 2.22563
lowerneck -11.0683 2.06124 -6.98774
upperneck -5.9275 3.54125 7.70756
head -0.258362 1.92728 3.888
rclavicle -3.24019e-014 -5.96354e-015
rhumerus -3.54887 24.6789 -70.0632
rradius 77.2561
rwrist -15.2797
rhand -36.1535 37.7983
rfingers 7.12502
rthumb -9.25793 8.02156
lclavicle -3.24019e-014 -5.96354e-015
lhumerus -15.5083 -16.5002 94.8175
lradius 83.3981
lwrist 26.3281
lhand -26.1319 20.0453
lfingers 7.12502
lthumb 0.418374 50.0246
rfemur -4.41515 -1.56548 14.7309
rtibia 30.8053
rfoot -9.13855 -16.5942
rtoes -12.6317
lfemur -9.04344 7.486 -19.5243
ltibia 25.823
lfoot -15.0292 18.1841
ltoes 5.07139
50
root 17.7532 17.9144 0.707985 1.80239 -46.3595 -4.49486
lowerback 5.39021 1.15381 -3.24213
upperback 2.62989 1.36223 0.673419
thorax -0.405774 0.641406 2.43372
lowerneck -11.108 2.18777 -7.07595
upperneck -5.76916 3.71419 7.61046
head -0.21397 2.01597 3.87772
rclavicle -7.97127e-014 1.82882e-014
rhumerus -3.36423 24.0199 -68.8391
rradius 77.6484
rwrist -15.3687
rhand -36.406 37.7514
rfingers 7.12502
rthumb -9.50154 7.98558
lclavicle -7.97127e-014 1.82882e-014
lhumerus -15.6337 -16.0179 94.4975
lradius 83.2943
lwrist 26.1977
lhand -26.323 19.7056
lfingers 7.12502
lthumb 0.233747 49.6852
rfemur -4.15553 -1.73012 14.0765
rtibia 30.5803
rfoot -9.14323 -16.4843
rtoes -11.0843
lfemur -9.17943 8.12 -19.9274
ltibia 25.8471
lfoot -14.9084 18.6943
ltoes 4.1813
51
root 17.7775 17.9116 0.671517 2.00463 -47.5406 -4.59735
lowerback 5.32642 1.35954 -3.37106
upperback 2.60542 1.63151 0.651963
thorax -0.415943 0.775578 2.46891
lowerneck -11.1606 2.29003 -6.8243
upperneck -5.71433 3.81815 7.3959
head -0.186902 2.06175 3.75651
rclavicle -7.00219e-014 1.90833e-014
rhumerus -3.17729 23.1499 -67.8242
rradius 77.8826
rwrist -15.2225
rhand -36.6168 37.6448
rfingers 7.12502
rthumb -9.7049 7.88837
lclavicle -7.00219e-014 1.90833e-014
lhumerus -15.7464 -15.7825 93.9071
lradius 83.2201
lwrist 25.9638
lhand -26.1447 19.4777
lfingers 7.12502
lthumb 0.405994 49.4571
rfemur -3.94722 -1.57625 13.907
rtibia 30.3616
rfoot -9.08359 -16.5422
rtoes -10.1878
lfemur -9.31918 8.7125 -19.8456
ltibia 25.824
lfoot -15.213 18.9414
ltoes 5.52668
52
root 17.7935 17.9124 0.655821 2.55949 -48.3329 -5.10212
lowerback 5.02919 1.39353 -2.97036
upperback 2.59151 1.70529 0.621318
thorax -0.258358 0.813749 2.21476
lowerneck -11.1997 2.38606 -6.43816
upperneck -5.72381 3.89893 7.16295
head -0.178016 2.09238 3.6018
rclavicle 8.43344e-014 -1.11319e-014
rhumerus -2.97975 22.4052 -66.8704
rradius 78.0411
rwrist -15.3822
rhand -36.3756 37.7766
rfingers 7.12502
rthumb -9.47219 8.00952
lclavicle 8.43344e-014 -1.11319e-014
lhumerus -15.9212 -15.5906 93.2453
lradius 83.2502
lwrist 25.8432
lhand -25.9568 19.4459
lfingers 7.12502
lthumb 0.587487 49.4249
rfemur -3.70215 -1.56254 14.0344
rtibia 30.2142
rfoot -8.83687 -16.6639
rtoes -10.076
lfemur -9.46986 8.88355 -19.5101
ltibia 25.7372
lfoot -15.3771 19.3259
ltoes 6.62521
53
root 17.8176 17.9179 0.638875 2.64695 -48.9184 -4.79966
lowerback 4.79763 1.38078 -3.04389
upperback 2.45043 1.69239 0.5221
thorax -0.272783 0.810085 2.15806
lowerneck -11.2997 2.49339 -6.37097
upperneck -5.49904 4.02925 7.05353
head -0.0940432 2.15772 3.55897
rclavicle 4.65156e-014 -7.15625e-015
rhumerus -2.90829 21.841 -65.7816
rradius 78.2708
rwrist -15.7169
rhand -36.226 37.7409
rfingers 7.12502
rthumb -9.32785 7.96731
lclavicle 4.65156e-014 -7.15625e-015
lhumerus -16.2589 -15.1642 92.8556
lradius 83.3853
lwrist 25.9204
lhand -25.8533 19.7014
lfingers 7.12502
lthumb 0.687434 49.6801
rfemur -3.64375 -2.07779 13.4615
rtibia 30.0712
rfoot -8.41516 -16.8151
rtoes -10.0754
lfemur -9.82806 8.8034 -19.8886
ltibia 25.6884
lfoot -15.3874 19.9226
ltoes 6.72619
54
root 17.8406 17.9221 0.61085 2.70615 -49.7892 -4.63016
lowerback 4.75022 1.49902 -3.17005
upperback 2.33103 1.8458 0.528452
thorax -0.38225 0.889588 2.22647
lowerneck -11.366 2.54286 -6.53959
upperneck -5.25232 4.10921 6.98271
head -0.0101582 2.20219 3.5739
rclavicle 1.19271e-015 -7.15625e-015
rhumerus -2.93512 21.0015 -64.7984
rradius 78.3772
rwrist -15.7569
rhand -36.2258 37.4137
rfingers 7.12502
rthumb -9.32765 7.64001
lclavicle 1.19271e-015 -7.15625e-015
lhumerus -16.6068 -14.6563 92.6321
lradius 83.4568
lwrist 25.8309
lhand -25.6577 19.8131
lfingers 7.12502
lthumb 0.876385 49.791
rfemur -3.57343 -2.45874 13.0233
rtibia 30.0056
rfoot -8.09238 -17.2252
rtoes -10.6686
lfemur -9.98439 9.15652 -20.0785
ltibia 25.5607
lfoot -15.4719 20.3133
ltoes 7.35527
55
root 17.861 17.9301 0.578959 3.56563 -50.4811 -5.30835
lowerback 4.48423 1.45319 -2.78632
upperback 2.22598 1.81015 0.611872
thorax -0.331383 0.875316 2.10403
lowerneck -11.4486 2.7014 -6.34974
upperneck -5.11147 4.2944 6.82037
head 0.042939 2.29095 3.48954
rclavicle 1.15444e-013 -3.97569e-016
rhumerus -2.81483 20.3007 -63.9262
rradius 78.5763
rwrist -15.8266
rhand -35.9147 37.6457
rfingers 7.12502
rthumb -9.02749 7.8589
lclavicle 1.15444e-013 -3.97569e-016
lhumerus -16.8029 -14.1374 92.0491
lradius 83.4078
lwrist 25.6057
lhand -25.7065 19.5473
lfingers 7.12502
lthumb 0.829168 49.5254
rfemur -3.64157 -2.65281 13.3083
rtibia 30.0353
rfoot -8.07864 -17.7405
rtoes -9.94876
lfemur -10.296 9.36556 -19.6411
ltibia 25.3201
lfoot -15.5229 20.6717
ltoes 7.93644
56
root 17.8832 17.9442 0.555409 3.83008 -50.9592 -5.07762
lowerback 4.18463 1.28625 -2.92213
upperback 1.98711 1.59176 0.530129
thorax -0.398359 0.770859 2.11057
lowerneck -11.4132 2.92367 -6.2664
upperneck -4.77435 4.56925 6.84786
head 0.127719 2.42839 3.49487
rclavicle -4.19933e-014 5.56597e-015
rhumerus -2.87837 19.9102 -63.0622
rradius 79.0704
rwrist -15.9741
rhand -35.8557 37.7999
rfingers 7.12502
rthumb -8.97054 8.0106
lclavicle -4.19933e-014 5.56597e-015
lhumerus -17.2258 -13.5169 91.414
lradius 83.4123
lwrist 25.4337
lhand -25.7297 19.7197
lfingers 7.12502
lthumb 0.806795 49.6979
rfemur -3.73932 -3.08568 12.9221
rtibia 29.9799
rfoot -7.99432 -18.0115
rtoes -8.81515
lfemur -10.7846 9.36902 -19.9069
ltibia 25.1971
lfoot -15.6692 21.0434
ltoes 8.40189
